<?xml version="1.0" encoding="iso-8859-1"?>
<!-- Generator: Adobe Illustrator 18.0.0, SVG Export Plug-In . SVG Version: 6.00 Build 0)  -->
<!DOCTYPE svg PUBLIC "-//W3C//DTD SVG 1.1//EN" "http://www.w3.org/Graphics/SVG/1.1/DTD/svg11.dtd">
<svg version="1.1" id="Capa_1" xmlns="http://www.w3.org/2000/svg" xmlns:xlink="http://www.w3.org/1999/xlink" x="0px" y="0px"
	 viewBox="0 0 249.356 249.356" style="enable-background:new 0 0 249.356 249.356;" xml:space="preserve">
<path d="M163.536,29.867l-78.25,45.646v-9.461c13.358-3.349,23.253-15.432,23.253-29.827c0-16.983-13.77-30.753-30.753-30.753
	s-30.753,13.77-30.753,30.753c0,14.396,9.895,26.478,23.253,29.827v18.211L0,125.297l0.023,68.625l85.941,49.963l163.392-95.693
	V80.126L163.536,29.867z M77.786,134.391c4.143,0,7.5-3.357,7.5-7.5v-2.544c6.479,1.49,9.838,4.598,9.838,5.886
	c0,1.725-6.012,6.712-17.484,6.712c-11.472,0-17.483-4.987-17.483-6.712c0-1.308,3.462-4.484,10.13-5.948v2.606
	C70.286,131.034,73.644,134.391,77.786,134.391z M217.883,136.083l-25.251,14.7c-3.598,2.037-8.178,0.776-10.221-2.834
	c-2.04-3.605-0.771-8.181,2.834-10.221l25.251-14.7c3.604-2.04,8.181-0.771,10.221,2.834
	C222.757,129.467,221.488,134.043,217.883,136.083z M85.813,167.347l-63.506-37.731l47.979-27.988v7.414
	c-14.738,2.111-25.13,10.517-25.13,21.192c0,12.378,13.965,21.712,32.483,21.712c18.52,0,32.484-9.334,32.484-21.712
	c0-10.604-10.255-18.969-24.838-21.149V92.878l78.225-45.631l14.547,8.543c-15.407,0.303-26.918,8.384-26.918,19.041
	c0,1.34,0.184,2.638,0.532,3.886c-3.562-1.091-7.564-1.695-11.855-1.695c-15.857,0-27.815,8.191-27.815,19.055
	s11.958,19.055,27.815,19.055c15.856,0,27.814-8.191,27.814-19.055c0-1.34-0.184-2.638-0.532-3.886
	c3.561,1.091,7.563,1.695,11.854,1.695c15.857,0,27.814-8.191,27.814-19.055c0-0.779-0.068-1.543-0.188-2.293l20.457,12.014
	L85.813,167.347z"/>
<g>
</g>
<g>
</g>
<g>
</g>
<g>
</g>
<g>
</g>
<g>
</g>
<g>
</g>
<g>
</g>
<g>
</g>
<g>
</g>
<g>
</g>
<g>
</g>
<g>
</g>
<g>
</g>
<g>
</g>
</svg>
